# xmcd CD database file
# Copyright (C) 1993-1998 Ti Kan
#
# Track frame offsets:
#  212
#  15007
#  32227
#  52890
#  68582
#  84907
#  100840
#  113392
#  126575
#  142515
#  153647
#
# Disc length: 2243 seconds
#
# Revision: 1
# Processed by: cddbd v1.4b41PL1 Copyright (c) Steve Scherf et al.
# Submitted via: CDWizzard Release:4.35
#
DISCID=7608c10b
DTITLE=M.C. R.G. - In Jesus Name
DYEAR=1900
DGENRE=
TTITLE0=This Little Light Of Mine
TTITLE1=Young And I'm Saved
TTITLE2=Child Of The King
TTITLE3=Cleanse
TTITLE4=It's In The Bible
TTITLE5=M.C. R.G.
TTITLE6=Coolin'
TTITLE7=In Jesus Name
TTITLE8=Power Of The Tongue
TTITLE9=Clap Your Hands
TTITLE10=The Lord's House
EXTD=
EXTT0=
EXTT1=
EXTT2=
EXTT3=
EXTT4=
EXTT5=
EXTT6=
EXTT7=
EXTT8=
EXTT9=
EXTT10=
PLAYORDER=
